<?xml version="1.0" encoding="UTF-8"?><svg id="long" xmlns="http://www.w3.org/2000/svg" viewBox="0 0 950.51 198.73"><defs><style>.cls-1{fill:#262600;stroke:#6339d3;stroke-miterlimit:10;}.cls-2{fill:#edc700;}.cls-3{fill:#ff0;}</style></defs><path class="cls-2" d="M898.61,198.72L26.05,170.75c-11.38-.36-19.5-11.17-16.67-22.2L43.97,13.39C46.04,5.3,53.44-.26,61.78,0l863.25,27.65c10.9.35,18.93,10.33,16.93,21.06l-25.28,135.48c-1.61,8.64-9.29,14.81-18.07,14.53Z"/><path class="cls-3" d="M898.57,187.41l-888.2,2.55c-7.05.02-12.05-6.87-9.84-13.56L52.55,18.43c1.39-4.23,5.33-7.09,9.78-7.1l877.81-2.54c6.79-.02,11.75,6.4,10.02,12.96l-41.64,157.95c-1.19,4.53-5.28,7.68-9.96,7.7Z"/><path class="cls-1" d="M117.29,156.79v-5.49c3.71-2.26,8.55-3.87,12.75-5l-6.78-22.59h-37.75l-6.45,22.59c4.03,1.13,8.87,2.74,12.91,5v5.49h-39.37v-5.49c3.71-2.1,8.39-3.87,12.91-5l31.95-103.91,17.1-2.26,33.08,106c4.52,1.13,9.36,2.74,13.39,5.16v5.49h-43.73ZM88.57,113.39h31.62l-11.13-37.27c-2.1-7.74-4.36-17.59-4.84-21.78h-.32c-.48,5.81-1.61,11.78-3.39,18.23l-11.94,40.82Z"/><path class="cls-1" d="M158.91,77.25c7.42-.97,19.68-1.61,29.36-1.61v52.11c0,10.33.48,18.07,3.71,18.07,13.55,0,29.53-30.66,31.3-50.02v-9.04c-4.36-.97-9.52-2.42-13.71-4.68v-4.84c7.42-.97,19.85-1.61,29.37-1.61v33.72c0,2.9-.16,33.88-.32,35.66,4.84,1.45,8.55,2.1,12.91,2.74v5c-5.65,2.58-17.1,4.19-28.4,4.19v-19.52c0-5.32.97-11.46,1.94-16.3l-.48-.32c-8.07,22.27-23.72,37.59-40.82,37.59-8.23,0-11.13-8.23-11.13-24.04v-47.6c-4.36-.97-9.52-2.42-13.71-4.68v-4.84Z"/><path class="cls-1" d="M298.64,84.67c-17.1,0-19.68,16.13-19.68,33.56s5,29.69,20.65,29.69c7.91,0,16.3-2.26,23.23-5.97l2.42,6.78c-6.94,5.32-17.75,9.84-29.36,9.84-23.72,0-32.91-14.2-32.91-37.43,0-26.14,11.29-47.11,39.85-47.11,7.42,0,13.07,1.13,19.52,3.23-.16,8.71-.81,17.43-1.77,24.85h-5.81c-2.1-4.52-3.71-10-4.52-15.17-3.71-1.61-6.62-2.26-11.62-2.26Z"/><path class="cls-1" d="M331.39,84.83v-7.1l15.65-4.52v-18.23l11.46-3.55h4.19v24.36s14.36,0,25.82-.32v9.36h-25.82v42.92c0,11.29.32,18.23,3.23,18.23,5.49,0,14.04-6.29,18.55-11.29l5,5.16c-7.58,9.36-17.75,18.72-31.46,18.72-7.74,0-10.97-7.58-10.97-23.4v-50.34h-15.65Z"/><path class="cls-1" d="M434.65,158.57c-25.17,0-35.01-14.84-35.01-40.5,0-23.88,14.2-44.05,39.85-44.05s35.01,14.84,35.01,40.5-15.17,44.05-39.85,44.05ZM437.55,84.35c-15.81,0-21.94,14.04-21.94,31.14s4.52,32.75,20.98,32.75,21.94-13.88,21.94-31.14-4.52-32.75-20.98-32.75Z"/><path class="cls-1" d="M526.13,43.69v5.49c-3.71,2.26-8.07,4.03-12.1,5.16l23.56,76.32c1.13,4.19,2.26,9.2,3.23,14.2h.48c1.13-5.32,2.58-11.29,4.03-16.94l21.78-73.57c-3.87-1.13-8.39-2.9-12.26-5.16v-5.49h39.21v5.49c-3.55,2.26-8.23,3.87-12.42,5.16l-34.21,104.23h-17.43l-34.21-104.07c-4.36-1.29-8.87-3.07-12.91-5.32v-5.49h43.24Z"/><path class="cls-1" d="M667.79,152.76c-7.26,2.74-19.04,4.19-28.24,4.19-.16-3.71,0-7.91.16-11.13.32-7.58,1.45-12.75,2.26-15.65l-.32-.16c-1.77,3.39-3.55,5.81-5.49,8.07-10,11.29-24.85,20.49-34.21,20.49s-11.94-11.13-11.94-20.81c0-23.88,19.52-31.95,50.18-31.79v-5.16c0-12.75-5-16.78-17.43-16.78-4.84,0-10.65,1.13-14.52,2.74-1.13,5.49-2.58,11.13-4.52,15.49l-6.29.48c-1.13-6.45-1.45-13.39-1.61-21.94,8.87-4.03,20.65-6.78,32.27-6.78,18.07,0,27.27,5.32,27.27,23.4,0,19.68-.65,42.11-.48,47.76,4.68,1.45,8.55,1.94,12.91,2.42v5.16ZM640.04,115.65c-24.2-1.45-34.21,3.39-34.21,18.23,0,4.84.65,12.26,3.39,12.26,5.65,0,23.07-12.1,30.82-26.14v-4.36Z"/><path class="cls-1" d="M686.34,47.08c-4.36-1.13-9.52-2.42-13.71-4.68v-5c7.91-.97,20.17-1.45,29.2-1.61v109.23c4.68,1.45,8.71,2.1,13.07,2.74v5c-5.81,2.58-17.43,4.19-28.56,4.19V47.08Z"/><path class="cls-1" d="M720.22,77.25c7.42-.97,19.68-1.61,29.36-1.61v52.11c0,10.33.48,18.07,3.71,18.07,13.55,0,29.53-30.66,31.3-50.02v-9.04c-4.36-.97-9.52-2.42-13.71-4.68v-4.84c7.42-.97,19.85-1.61,29.37-1.61v33.72c0,2.9-.16,33.88-.32,35.66,4.84,1.45,8.55,2.1,12.91,2.74v5c-5.65,2.58-17.1,4.19-28.4,4.19v-19.52c0-5.32.97-11.46,1.94-16.3l-.48-.32c-8.07,22.27-23.72,37.59-40.82,37.59-8.23,0-11.13-8.23-11.13-24.04v-47.6c-4.36-.97-9.52-2.42-13.71-4.68v-4.84Z"/><path class="cls-1" d="M840.9,116.46v2.42c0,18.56,6.45,28.88,23.4,28.88,7.1,0,15.65-2.42,22.27-6.13l3.23,6.45c-7.75,6.78-18.88,10.49-28.88,10.49-26.3,0-35.82-13.88-35.82-38.4,0-26.78,15.49-45.98,40.98-45.98,16.46,0,24.04,7.74,24.04,20.17,0,7.26-3.39,15.81-6.13,22.1h-43.08ZM841.39,108.23l30.49-.81c1.13-2.42,2.58-7.58,2.58-10.81,0-7.1-2.26-12.42-10.97-12.42-13.07,0-20.33,10.81-22.1,24.04Z"/></svg>