<?xml version="1.0" encoding="UTF-8"?><svg id="short" xmlns="http://www.w3.org/2000/svg" viewBox="0 0 188.82 140.52"><defs><style>.cls-1{fill:#262600;}.cls-2{fill:#ff0;}</style></defs><path class="cls-2" d="M142.19,140.52H6.7c-4.55,0-7.77-4.43-6.37-8.76L41.48,4.63c.89-2.76,3.47-4.63,6.37-4.63h134.27c4.52,0,7.74,4.39,6.39,8.7l-39.92,127.13c-.88,2.79-3.46,4.69-6.39,4.69Z"/><path class="cls-1" d="M128.12,14.92v5.25c3.71,2.16,8.04,3.86,11.75,4.95l-20.86,70.47c-1.39,5.41-2.78,11.13-3.86,16.23h-.46c-.93-4.79-2.01-9.58-3.09-13.6l-22.56-73.1c3.86-1.08,8.04-2.78,11.59-4.95v-5.25h-22.34s-10.02-.02-10.02-.02l-1.72.02h-7.34v5.25c1.59.89,3.28,1.69,4.98,2.42l-28.53,92.79c-4.41,1.1-8.97,2.83-12.59,4.88v5.35h38.39v-5.35c-3.93-2.2-8.65-3.78-12.59-4.88l6.29-22.03h36.82l6.61,22.03c-4.09,1.1-8.81,2.67-12.43,4.88v5.35h42.64v-5.35c-1.68-1.01-3.5-1.86-5.38-2.61l30.37-92.53c4.02-1.24,8.5-2.78,11.9-4.95v-5.25h-37.55ZM58.15,83.29l11.64-39.81c1.41-5.11,2.39-9.91,2.96-14.56l3.45,10.49c.62,2.56,1.28,5.15,1.93,7.53l10.86,36.34h-30.84Z"/></svg>